<svg width="97" height="23" viewBox="0 0 97 23" fill="none" xmlns="http://www.w3.org/2000/svg">
<path opacity="0.4" d="M79.5567 3.46484C79.5567 3.46484 79.5183 3.72286 78.7241 4.75492C77.9786 5.72761 79.0571 6.46811 79.1853 6.55326C79.1929 6.55842 79.2006 6.55842 79.2109 6.55326C79.385 6.4449 81.3245 5.18838 79.5567 3.46484Z" stroke="#FFF0F0" stroke-width="1.5" stroke-miterlimit="10" stroke-linecap="round" stroke-linejoin="round"/>
<path d="M78.9418 2.89467C78.9418 2.30123 78.7113 1.7594 78.4807 1.44979C78.4039 1.37239 78.2757 1.39819 78.2501 1.5014C78.1476 1.88842 77.8402 2.71406 77.0972 3.6945C76.1493 4.93296 77.0204 6.27463 77.9171 6.53265C78.4039 6.66165 77.789 6.27463 77.7121 5.47479C77.6353 4.46854 78.9418 3.72031 78.9418 2.89467Z" fill="#FFF0F0" stroke="#FFF0F0" stroke-width="1.5" stroke-miterlimit="10" stroke-linecap="round" stroke-linejoin="round"/>
<path d="M4.06402 18.646C3.40896 18.646 2.8252 18.5315 2.31275 18.3027C1.80029 18.0694 1.39479 17.726 1.09622 17.2727C0.802113 16.815 0.65506 16.245 0.65506 15.5629C0.65506 14.9885 0.75978 14.5061 0.969218 14.1156C1.17866 13.7253 1.46385 13.4111 1.8248 13.1733C2.18574 12.9354 2.59572 12.7559 3.05469 12.6347C3.51813 12.5135 4.00386 12.4283 4.51186 12.3789C5.10898 12.3161 5.59024 12.2577 5.95564 12.2039C6.32106 12.1455 6.58619 12.0603 6.75107 11.9481C6.91594 11.8359 6.99839 11.6698 6.99839 11.45V11.4096C6.99839 10.9832 6.86471 10.6534 6.59734 10.42C6.33442 10.1867 5.9601 10.07 5.47438 10.07C4.96193 10.07 4.55419 10.1844 4.25117 10.4133C3.94816 10.6377 3.74763 10.9204 3.64959 11.2615L1.01601 11.0461C1.14969 10.4178 1.4126 9.87477 1.80475 9.41702C2.19689 8.9548 2.70265 8.60027 3.32206 8.35344C3.94592 8.10213 4.66783 7.97648 5.48775 7.97648C6.05814 7.97648 6.60401 8.04378 7.12539 8.17842C7.65121 8.31305 8.11689 8.52173 8.52239 8.80445C8.93235 9.08717 9.25542 9.45069 9.4916 9.89497C9.72778 10.3348 9.84587 10.8621 9.84587 11.4769V18.4508H7.14544V17.0169H7.06523C6.90035 17.3401 6.67977 17.625 6.40349 17.8718C6.12721 18.1142 5.79522 18.3049 5.40754 18.4441C5.01986 18.5787 4.57202 18.646 4.06402 18.646ZM4.87948 16.6669C5.29836 16.6669 5.66823 16.5838 5.98907 16.4178C6.30991 16.2473 6.56169 16.0185 6.74438 15.7312C6.92709 15.444 7.01844 15.1187 7.01844 14.7551V13.6579C6.92932 13.7163 6.80677 13.7701 6.65081 13.8194C6.4993 13.8643 6.32773 13.907 6.13613 13.9473C5.94451 13.9832 5.7529 14.0169 5.56128 14.0483C5.36967 14.0752 5.19587 14.1 5.03992 14.1223C4.7057 14.1718 4.41382 14.2502 4.16428 14.358C3.91473 14.4657 3.72089 14.6115 3.58274 14.7955C3.44461 14.975 3.37554 15.1994 3.37554 15.4687C3.37554 15.8591 3.51591 16.1576 3.79665 16.364C4.08184 16.5659 4.44278 16.6669 4.87948 16.6669ZM12.1085 4.66455H15.6779L19.4477 13.9272H19.6082L23.378 4.66455H26.9474V18.4508H24.1401V9.4776H24.0264L20.4838 18.3834H18.5721L15.0295 9.44395H14.9158V18.4508H12.1085V4.66455ZM33.9575 18.6527C32.9014 18.6527 31.9923 18.4372 31.2304 18.0064C30.4728 17.5712 29.8891 16.9564 29.4791 16.162C29.0691 15.3632 28.8641 14.4186 28.8641 13.3281C28.8641 12.2645 29.0691 11.331 29.4791 10.5277C29.8891 9.72444 30.4662 9.09839 31.2103 8.64963C31.9589 8.20085 32.8368 7.97648 33.8438 7.97648C34.5212 7.97648 35.1518 8.08642 35.7355 8.30632C36.3237 8.52173 36.8362 8.84709 37.2729 9.2824C37.7141 9.7177 38.0571 10.2652 38.3022 10.9249C38.5474 11.5801 38.6699 12.3475 38.6699 13.2271V14.0147H30.0005V12.2375H35.9895C35.9895 11.8247 35.9004 11.4589 35.7221 11.1403C35.5439 10.8217 35.2966 10.5726 34.9802 10.3931C34.6683 10.2091 34.3051 10.1171 33.8906 10.1171C33.4585 10.1171 33.0752 10.2181 32.741 10.42C32.4112 10.6175 32.1528 10.8845 31.9656 11.2211C31.7785 11.5532 31.6826 11.9234 31.6782 12.3318V14.0214C31.6782 14.5331 31.7718 14.975 31.9589 15.3475C32.1505 15.72 32.4201 16.0072 32.7677 16.2091C33.1153 16.4111 33.5275 16.5121 34.0043 16.5121C34.3207 16.5121 34.6103 16.4672 34.8732 16.3775C35.1362 16.2878 35.3612 16.153 35.5483 15.9736C35.7355 15.794 35.8781 15.5741 35.9762 15.3139L38.6098 15.4888C38.476 16.1261 38.2019 16.6827 37.7876 17.1583C37.3776 17.6295 36.8473 17.9975 36.1967 18.2623C35.5506 18.5225 34.8042 18.6527 33.9575 18.6527ZM40.5281 18.4508V8.1111H43.2419V9.93536H43.3623C43.5761 9.32952 43.9326 8.85157 44.4317 8.50153C44.9308 8.15149 45.5279 7.97648 46.2231 7.97648C46.9272 7.97648 47.5265 8.15374 48.0212 8.50827C48.5158 8.85831 48.8455 9.33401 49.0103 9.93536H49.1174C49.3268 9.34298 49.7055 8.86952 50.2537 8.51499C50.8062 8.15598 51.4591 7.97648 52.2121 7.97648C53.1702 7.97648 53.9478 8.28388 54.5449 8.8987C55.1465 9.50902 55.4472 10.3751 55.4472 11.4971V18.4508H52.6065V12.0625C52.6065 11.4881 52.455 11.0573 52.152 10.7701C51.8489 10.4829 51.4702 10.3392 51.0156 10.3392C50.4987 10.3392 50.0954 10.5053 49.8058 10.8374C49.5162 11.165 49.3714 11.598 49.3714 12.1366V18.4508H46.6107V12.0019C46.6107 11.4948 46.4659 11.0909 46.1763 10.7903C45.891 10.4896 45.5146 10.3392 45.0467 10.3392C44.7303 10.3392 44.4451 10.42 44.1911 10.5816C43.9415 10.7386 43.7432 10.9608 43.5962 11.248C43.4491 11.5307 43.3756 11.8628 43.3756 12.2443V18.4508H40.5281ZM62.3354 18.6527C61.2971 18.6527 60.3991 18.4305 59.6417 17.9863C58.8885 17.5375 58.307 16.9137 57.8971 16.1149C57.4871 15.3116 57.2821 14.3804 57.2821 13.3214C57.2821 12.2533 57.4871 11.3198 57.8971 10.521C58.307 9.7177 58.8885 9.09391 59.6417 8.64963C60.3991 8.20085 61.2971 7.97648 62.3354 7.97648C63.3736 7.97648 64.2693 8.20085 65.0225 8.64963C65.7799 9.09391 66.3637 9.7177 66.7737 10.521C67.1837 11.3198 67.3887 12.2533 67.3887 13.3214C67.3887 14.3804 67.1837 15.3116 66.7737 16.1149C66.3637 16.9137 65.7799 17.5375 65.0225 17.9863C64.2693 18.4305 63.3736 18.6527 62.3354 18.6527ZM62.3488 16.4313C62.8211 16.4313 63.2155 16.2967 63.5319 16.0274C63.8482 15.7537 64.0866 15.3811 64.2471 14.91C64.4119 14.4388 64.4943 13.9025 64.4943 13.3012C64.4943 12.6998 64.4119 12.1635 64.2471 11.6923C64.0866 11.2211 63.8482 10.8486 63.5319 10.5749C63.2155 10.3011 62.8211 10.1642 62.3488 10.1642C61.8719 10.1642 61.4709 10.3011 61.1456 10.5749C60.8248 10.8486 60.5818 11.2211 60.4171 11.6923C60.2566 12.1635 60.1764 12.6998 60.1764 13.3012C60.1764 13.9025 60.2566 14.4388 60.4171 14.91C60.5818 15.3811 60.8248 15.7537 61.1456 16.0274C61.4709 16.2967 61.8719 16.4313 62.3488 16.4313ZM69.2402 18.4508V8.1111H72.0007V9.91516H72.1078C72.2949 9.27342 72.6091 8.78874 73.0502 8.46114C73.4914 8.12906 73.9993 7.963 74.5742 7.963C74.7167 7.963 74.8706 7.97199 75.0355 7.98993C75.2002 8.00789 75.3452 8.03257 75.4699 8.06398V10.6085C75.3363 10.5681 75.1513 10.5322 74.9151 10.5008C74.679 10.4694 74.4628 10.4537 74.2667 10.4537C73.8479 10.4537 73.4736 10.5457 73.1438 10.7297C72.8185 10.9092 72.56 11.1605 72.3684 11.4836C72.1813 11.8067 72.0877 12.1792 72.0877 12.601V18.4508H69.2402ZM84.9982 18.646C84.3432 18.646 83.7594 18.5315 83.247 18.3027C82.7345 18.0694 82.329 17.726 82.0304 17.2727C81.7364 16.815 81.5893 16.245 81.5893 15.5629C81.5893 14.9885 81.694 14.5061 81.9034 14.1156C82.1128 13.7253 82.3981 13.4111 82.7591 13.1733C83.12 12.9354 83.5299 12.7559 83.989 12.6347C84.4524 12.5135 84.9381 12.4283 85.4461 12.3789C86.0432 12.3161 86.5245 12.2577 86.8899 12.2039C87.2553 12.1455 87.5205 12.0603 87.6852 11.9481C87.8501 11.8359 87.9326 11.6698 87.9326 11.45V11.4096C87.9326 10.9832 87.7989 10.6534 87.5315 10.42C87.2686 10.1867 86.8943 10.07 86.4086 10.07C85.8962 10.07 85.4884 10.1844 85.1855 10.4133C84.8824 10.6377 84.6819 10.9204 84.5839 11.2615L81.9502 11.0461C82.084 10.4178 82.3469 9.87477 82.739 9.41702C83.1311 8.9548 83.6368 8.60027 84.2562 8.35344C84.8801 8.10213 85.6021 7.97648 86.422 7.97648C86.9923 7.97648 87.5383 8.04378 88.0596 8.17842C88.5855 8.31305 89.0511 8.52173 89.4566 8.80445C89.8666 9.08717 90.1897 9.45069 90.4258 9.89497C90.662 10.3348 90.7801 10.8621 90.7801 11.4769V18.4508H88.0797V17.0169H87.9995C87.8346 17.3401 87.614 17.625 87.3378 17.8718C87.0615 18.1142 86.7294 18.3049 86.3418 18.4441C85.9541 18.5787 85.5062 18.646 84.9982 18.646ZM85.8138 16.6669C86.2326 16.6669 86.6024 16.5838 86.9233 16.4178C87.2442 16.2473 87.4959 16.0185 87.6786 15.7312C87.8613 15.444 87.9527 15.1187 87.9527 14.7551V13.6579C87.8636 13.7163 87.741 13.7701 87.585 13.8194C87.4335 13.8643 87.262 13.907 87.0704 13.9473C86.8788 13.9832 86.6871 14.0169 86.4955 14.0483C86.3039 14.0752 86.1301 14.1 85.9741 14.1223C85.64 14.1718 85.3481 14.2502 85.0985 14.358C84.8489 14.4657 84.6552 14.6115 84.517 14.7955C84.3788 14.975 84.3098 15.1994 84.3098 15.4687C84.3098 15.8591 84.4501 16.1576 84.7308 16.364C85.0161 16.5659 85.3771 16.6669 85.8138 16.6669ZM95.8368 4.66455V18.4508H92.9893V4.66455H95.8368Z" fill="#FFF0F0"/>
<path d="M79.934 8.08789H77.0479V18.4505H79.934V8.08789Z" fill="#FFF0F0"/>
</svg>
