<svg width="23" height="23" viewBox="0 0 23 23" fill="none" xmlns="http://www.w3.org/2000/svg">
<path d="M13.6902 0H9.3093C4.72077 0 0.987671 3.73223 0.987671 8.31988V12.2663C0.987671 15.6827 3.08702 18.7531 6.24371 20.0036V22.562C6.24371 22.7354 6.34577 22.8923 6.50432 22.9623C6.56126 22.9877 6.62171 23 6.68172 23C6.78815 23 6.89371 22.961 6.97562 22.8866L9.5156 20.5862H13.6902C18.2787 20.5862 22.0118 16.8539 22.0118 12.2663V8.31988C22.0118 3.73223 18.2787 0 13.6902 0ZM21.1358 12.2663C21.1358 16.3708 17.7961 19.7102 13.6902 19.7102H9.34653C9.2379 19.7102 9.13322 19.7505 9.05263 19.8236L7.11972 21.5743V19.7001C7.11972 19.5144 7.00277 19.3488 6.82757 19.2875C3.85878 18.2376 1.86368 15.416 1.86368 12.2663V8.31988C1.86368 4.21535 5.20389 0.876007 9.3093 0.876007H13.6902C17.7961 0.876007 21.1358 4.21535 21.1358 8.31988V12.2663V12.2663Z" fill="#471D1D"/>
<path d="M17.2884 13.3561L14.5965 11.6075C14.3021 11.4161 13.9517 11.3513 13.6088 11.4223C13.2654 11.4945 12.9701 11.6973 12.7787 11.993L12.6522 12.1875C11.4871 11.8025 10.2024 11.3106 9.43327 9.0842L9.7517 8.80739C10.2983 8.33215 10.3557 7.50082 9.88047 6.95332L7.77455 4.53072C7.616 4.34807 7.33918 4.32924 7.15653 4.48736L5.8342 5.63668C4.67436 6.64496 5.21618 8.13636 5.39444 8.62649C5.40233 8.64839 5.41196 8.66941 5.42335 8.69C5.46934 8.77235 6.56742 10.732 8.34089 12.5383C10.1214 14.3521 13.3359 16.027 13.4344 16.0756C13.8015 16.3139 14.2145 16.4282 14.6232 16.4282C15.3406 16.4282 16.0441 16.0765 16.4637 15.4317L17.4176 13.9627C17.549 13.759 17.4912 13.4879 17.2884 13.3561ZM15.7287 14.9543C15.3341 15.5623 14.5185 15.7348 13.8746 15.3196C13.8427 15.303 10.6492 13.6399 8.96592 11.9251C7.39261 10.3224 6.34798 8.54195 6.20562 8.29361C5.85873 7.3208 5.92005 6.72293 6.40886 6.29806L7.40094 5.43607L9.21953 7.52798C9.38115 7.71369 9.36232 7.98525 9.17748 8.146L8.64005 8.61291C8.50908 8.72679 8.4574 8.90681 8.50865 9.07238C9.42495 12.0499 11.2067 12.6347 12.5076 13.0617L12.6973 13.1243C12.8869 13.1883 13.0945 13.1151 13.2032 12.9478L13.5137 12.4695C13.5777 12.3705 13.6758 12.3035 13.7897 12.2794C13.904 12.2549 14.0205 12.2777 14.1195 12.3421L16.4444 13.8519L15.7287 14.9543Z" fill="#471D1D"/>
<path d="M12.4997 7.11624C12.2667 7.04923 12.0245 7.18457 11.9583 7.41759C11.8922 7.65017 12.0271 7.89239 12.2597 7.95852C12.9123 8.14424 13.4322 8.66502 13.6162 9.31809C13.6705 9.51081 13.8461 9.63739 14.0375 9.63739C14.077 9.63739 14.1168 9.63214 14.1567 9.62119C14.3893 9.55549 14.525 9.31371 14.4593 9.08069C14.1935 8.13723 13.4423 7.3843 12.4997 7.11624Z" fill="#471D1D"/>
<path d="M15.8329 9.73199C15.8724 9.73199 15.9122 9.72673 15.9521 9.71578C16.1851 9.65008 16.3204 9.40787 16.2547 9.17529C15.7379 7.34312 14.2798 5.88194 12.4489 5.36071C12.2163 5.2937 11.9741 5.42992 11.908 5.6625C11.8418 5.89508 11.9768 6.13729 12.2093 6.20343C13.7498 6.64144 14.9766 7.87179 15.4116 9.41312C15.4663 9.60584 15.6415 9.73199 15.8329 9.73199Z" fill="#471D1D"/>
<path d="M12.2601 3.32095C12.0271 3.25394 11.7849 3.38928 11.7188 3.62274C11.6526 3.85532 11.7875 4.09753 12.0201 4.16367C14.6302 4.90609 16.7094 6.99011 17.4461 9.60192C17.5004 9.79465 17.6761 9.92123 17.8675 9.92123C17.9069 9.92123 17.9467 9.91597 17.9866 9.90502C18.2192 9.83932 18.355 9.5971 18.2893 9.36453C17.4706 6.46188 15.1606 4.14659 12.2601 3.32095Z" fill="#471D1D"/>
</svg>
