<svg width="23" height="23" viewBox="0 0 23 23" fill="none" xmlns="http://www.w3.org/2000/svg">
<path d="M11.5 0C5.15863 0 0 5.15863 0 11.5C0 13.6633 0.601096 15.7634 1.74137 17.587C1.28712 19.1785 0.466635 22.1888 0.457788 22.2202C0.415327 22.3759 0.460885 22.5422 0.577212 22.6541C0.693538 22.766 0.861615 22.8058 1.01465 22.7589L5.57308 21.3568C7.35867 22.4325 9.40346 23 11.5 23C17.8414 23 23 17.8414 23 11.5C23 5.15863 17.8414 0 11.5 0ZM11.5 22.1154C9.50121 22.1154 7.55417 21.5567 5.86898 20.5005C5.79777 20.4558 5.71594 20.4333 5.63412 20.4333C5.59033 20.4333 5.54654 20.4399 5.50408 20.4527L1.52375 21.6779C1.81612 20.6107 2.34158 18.7017 2.64633 17.6397C2.68171 17.5167 2.66181 17.384 2.59237 17.2765C1.4751 15.5573 0.884615 13.5598 0.884615 11.5C0.884615 5.64694 5.64694 0.884615 11.5 0.884615C17.3531 0.884615 22.1154 5.64694 22.1154 11.5C22.1154 17.3531 17.3531 22.1154 11.5 22.1154Z" fill="#471D1D"/>
<path d="M19.0126 14.2096C18.1961 13.7562 17.5008 13.3015 16.9934 12.9698C16.606 12.7168 16.326 12.5341 16.1208 12.4311C15.5471 12.1449 15.1123 12.347 14.9469 12.5142C14.9261 12.535 14.9075 12.5576 14.8916 12.5814C14.2958 13.4753 13.5178 14.3303 13.29 14.3763C13.0268 14.3352 11.795 13.635 10.5707 12.6155C9.32073 11.5739 8.5343 10.5765 8.41886 9.89707C9.22076 9.07173 9.50959 8.55246 9.50959 7.96154C9.50959 7.35248 8.0889 4.80965 7.83192 4.55267C7.57405 4.29525 6.9933 4.255 6.10559 4.43192C6.02023 4.44917 5.9415 4.49119 5.87957 4.55267C5.77209 4.66015 3.25713 7.22421 4.45225 10.3319C5.76413 13.7425 9.13142 17.7069 13.4245 18.3509C13.9123 18.4239 14.3697 18.4602 14.7978 18.4602C17.3234 18.4602 18.814 17.1894 19.2337 14.6687C19.2651 14.4842 19.1762 14.3002 19.0126 14.2096ZM13.5558 17.476C9.01598 16.7953 6.15646 12.2975 5.27803 10.0143C4.40669 7.74967 6.01359 5.73054 6.41698 5.27408C6.74517 5.21834 7.09061 5.1949 7.2348 5.21746C7.53601 5.63633 8.57898 7.60681 8.62498 7.96154C8.62498 8.19375 8.54934 8.51707 7.6488 9.41806C7.56565 9.50077 7.51921 9.61311 7.51921 9.73077C7.51921 12.0467 12.4041 15.2596 13.2692 15.2596C14.0216 15.2596 15.0026 13.9951 15.5612 13.171C15.5935 13.1724 15.6479 13.1834 15.7253 13.2223C15.8846 13.3024 16.1606 13.4824 16.5096 13.7107C16.9704 14.0119 17.5826 14.4117 18.3053 14.8262C17.9771 16.4052 17.0598 18.0024 13.5558 17.476Z" fill="#471D1D"/>
</svg>
